%TF.GenerationSoftware,KiCad,Pcbnew,8.0.5*%
%TF.CreationDate,2024-10-25T13:02:38+02:00*%
%TF.ProjectId,ALIKEY03a,414c494b-4559-4303-9361-2e6b69636164,00*%
%TF.SameCoordinates,Original*%
%TF.FileFunction,Copper,L2,Bot*%
%TF.FilePolarity,Positive*%
%FSLAX46Y46*%
G04 Gerber Fmt 4.6, Leading zero omitted, Abs format (unit mm)*
G04 Created by KiCad (PCBNEW 8.0.5) date 2024-10-25 13:02:38*
%MOMM*%
%LPD*%
G01*
G04 APERTURE LIST*
G04 Aperture macros list*
%AMRoundRect*
0 Rectangle with rounded corners*
0 $1 Rounding radius*
0 $2 $3 $4 $5 $6 $7 $8 $9 X,Y pos of 4 corners*
0 Add a 4 corners polygon primitive as box body*
4,1,4,$2,$3,$4,$5,$6,$7,$8,$9,$2,$3,0*
0 Add four circle primitives for the rounded corners*
1,1,$1+$1,$2,$3*
1,1,$1+$1,$4,$5*
1,1,$1+$1,$6,$7*
1,1,$1+$1,$8,$9*
0 Add four rect primitives between the rounded corners*
20,1,$1+$1,$2,$3,$4,$5,0*
20,1,$1+$1,$4,$5,$6,$7,0*
20,1,$1+$1,$6,$7,$8,$9,0*
20,1,$1+$1,$8,$9,$2,$3,0*%
%AMHorizOval*
0 Thick line with rounded ends*
0 $1 width*
0 $2 $3 position (X,Y) of the first rounded end (center of the circle)*
0 $4 $5 position (X,Y) of the second rounded end (center of the circle)*
0 Add line between two ends*
20,1,$1,$2,$3,$4,$5,0*
0 Add two circle primitives to create the rounded ends*
1,1,$1,$2,$3*
1,1,$1,$4,$5*%
G04 Aperture macros list end*
%ADD10C,0.150000*%
%TA.AperFunction,NonConductor*%
%ADD11C,0.150000*%
%TD*%
%TA.AperFunction,ComponentPad*%
%ADD12HorizOval,1.587500X0.238125X0.412445X-0.238125X-0.412445X0*%
%TD*%
%TA.AperFunction,ComponentPad*%
%ADD13HorizOval,1.587500X-0.238125X0.412445X0.238125X-0.412445X0*%
%TD*%
%TA.AperFunction,ComponentPad*%
%ADD14C,1.905000*%
%TD*%
%TA.AperFunction,ComponentPad*%
%ADD15O,1.587500X2.540000*%
%TD*%
%TA.AperFunction,SMDPad,CuDef*%
%ADD16RoundRect,0.287500X0.612500X-0.287500X0.612500X0.287500X-0.612500X0.287500X-0.612500X-0.287500X0*%
%TD*%
%TA.AperFunction,SMDPad,CuDef*%
%ADD17RoundRect,0.287500X-0.612500X0.287500X-0.612500X-0.287500X0.612500X-0.287500X0.612500X0.287500X0*%
%TD*%
%TA.AperFunction,TestPad*%
%ADD18RoundRect,0.500000X-2.040000X0.770000X-2.040000X-0.770000X2.040000X-0.770000X2.040000X0.770000X0*%
%TD*%
%TA.AperFunction,TestPad*%
%ADD19RoundRect,0.400000X2.140000X-0.616000X2.140000X0.616000X-2.140000X0.616000X-2.140000X-0.616000X0*%
%TD*%
%TA.AperFunction,TestPad*%
%ADD20RoundRect,0.500000X2.040000X-0.770000X2.040000X0.770000X-2.040000X0.770000X-2.040000X-0.770000X0*%
%TD*%
%TA.AperFunction,SMDPad,CuDef*%
%ADD21RoundRect,0.287500X0.287500X0.612500X-0.287500X0.612500X-0.287500X-0.612500X0.287500X-0.612500X0*%
%TD*%
%TA.AperFunction,TestPad*%
%ADD22RoundRect,0.400000X-2.140000X0.616000X-2.140000X-0.616000X2.140000X-0.616000X2.140000X0.616000X0*%
%TD*%
%TA.AperFunction,ViaPad*%
%ADD23C,0.711200*%
%TD*%
%TA.AperFunction,Conductor*%
%ADD24C,0.406400*%
%TD*%
%TA.AperFunction,Conductor*%
%ADD25C,1.016000*%
%TD*%
G04 APERTURE END LIST*
D10*
D11*
X138379211Y-68112809D02*
X138236354Y-68160428D01*
X138236354Y-68160428D02*
X138188735Y-68208047D01*
X138188735Y-68208047D02*
X138141116Y-68303285D01*
X138141116Y-68303285D02*
X138141116Y-68446142D01*
X138141116Y-68446142D02*
X138188735Y-68541380D01*
X138188735Y-68541380D02*
X138236354Y-68589000D01*
X138236354Y-68589000D02*
X138331592Y-68636619D01*
X138331592Y-68636619D02*
X138712544Y-68636619D01*
X138712544Y-68636619D02*
X138712544Y-67636619D01*
X138712544Y-67636619D02*
X138379211Y-67636619D01*
X138379211Y-67636619D02*
X138283973Y-67684238D01*
X138283973Y-67684238D02*
X138236354Y-67731857D01*
X138236354Y-67731857D02*
X138188735Y-67827095D01*
X138188735Y-67827095D02*
X138188735Y-67922333D01*
X138188735Y-67922333D02*
X138236354Y-68017571D01*
X138236354Y-68017571D02*
X138283973Y-68065190D01*
X138283973Y-68065190D02*
X138379211Y-68112809D01*
X138379211Y-68112809D02*
X138712544Y-68112809D01*
X137522068Y-67636619D02*
X137331592Y-67636619D01*
X137331592Y-67636619D02*
X137236354Y-67684238D01*
X137236354Y-67684238D02*
X137141116Y-67779476D01*
X137141116Y-67779476D02*
X137093497Y-67969952D01*
X137093497Y-67969952D02*
X137093497Y-68303285D01*
X137093497Y-68303285D02*
X137141116Y-68493761D01*
X137141116Y-68493761D02*
X137236354Y-68589000D01*
X137236354Y-68589000D02*
X137331592Y-68636619D01*
X137331592Y-68636619D02*
X137522068Y-68636619D01*
X137522068Y-68636619D02*
X137617306Y-68589000D01*
X137617306Y-68589000D02*
X137712544Y-68493761D01*
X137712544Y-68493761D02*
X137760163Y-68303285D01*
X137760163Y-68303285D02*
X137760163Y-67969952D01*
X137760163Y-67969952D02*
X137712544Y-67779476D01*
X137712544Y-67779476D02*
X137617306Y-67684238D01*
X137617306Y-67684238D02*
X137522068Y-67636619D01*
X136807782Y-67636619D02*
X136236354Y-67636619D01*
X136522068Y-68636619D02*
X136522068Y-67636619D01*
D12*
%TO.P,K1,1,1*%
%TO.N,GND_Bar*%
X92398550Y-64816837D03*
D13*
%TO.P,K1,2,2*%
X92398550Y-71716763D03*
%TO.P,K1,3,3*%
%TO.N,Net-(K1-Pad3)*%
X87581050Y-64816837D03*
D12*
%TO.P,K1,4,4*%
X87581050Y-71716763D03*
D14*
%TO.P,K1,A1,A1*%
%TO.N,Net-(K1-PadA1)*%
X86389800Y-68266800D03*
%TO.P,K1,A2,A2*%
%TO.N,Net-(K1-PadA2)*%
X93589800Y-68266800D03*
D15*
%TO.P,K1,C1,C1*%
%TO.N,GND_Bar*%
X89989800Y-64349300D03*
%TO.P,K1,C2,C2*%
X89989800Y-72184300D03*
%TD*%
D12*
%TO.P,K2,1,1*%
%TO.N,GND_Bar*%
X106898550Y-64816837D03*
D13*
%TO.P,K2,2,2*%
X106898550Y-71716763D03*
%TO.P,K2,3,3*%
%TO.N,Net-(K2-Pad3)*%
X102081050Y-64816837D03*
D12*
%TO.P,K2,4,4*%
X102081050Y-71716763D03*
D14*
%TO.P,K2,A1,A1*%
%TO.N,Net-(K2-PadA1)*%
X100889800Y-68266800D03*
%TO.P,K2,A2,A2*%
%TO.N,Net-(K2-PadA2)*%
X108089800Y-68266800D03*
D15*
%TO.P,K2,C1,C1*%
%TO.N,GND_Bar*%
X104489800Y-64349300D03*
%TO.P,K2,C2,C2*%
X104489800Y-72184300D03*
%TD*%
D12*
%TO.P,K3,1,1*%
%TO.N,GND_Bar*%
X121398550Y-64816837D03*
D13*
%TO.P,K3,2,2*%
X121398550Y-71716763D03*
%TO.P,K3,3,3*%
%TO.N,Net-(K3-Pad3)*%
X116581050Y-64816837D03*
D12*
%TO.P,K3,4,4*%
X116581050Y-71716763D03*
D14*
%TO.P,K3,A1,A1*%
%TO.N,Net-(K3-PadA1)*%
X115389800Y-68266800D03*
%TO.P,K3,A2,A2*%
%TO.N,Net-(K3-PadA2)*%
X122589800Y-68266800D03*
D15*
%TO.P,K3,C1,C1*%
%TO.N,GND_Bar*%
X118989800Y-64349300D03*
%TO.P,K3,C2,C2*%
X118989800Y-72184300D03*
%TD*%
D16*
%TO.P,R4,1,1*%
%TO.N,Net-(D1-2-Pad1)*%
X95599800Y-74161800D03*
%TO.P,R4,2,2*%
%TO.N,Net-(K1-PadA2)*%
X95599800Y-71311800D03*
%TD*%
D17*
%TO.P,R14,1,1*%
%TO.N,Net-(D3-1-Pad1)*%
X113379800Y-65546800D03*
%TO.P,R14,2,2*%
%TO.N,Net-(K3-PadA1)*%
X113379800Y-68396800D03*
%TD*%
D16*
%TO.P,R12,1,1*%
%TO.N,Net-(D3-2-Pad1)*%
X124174800Y-73526800D03*
%TO.P,R12,2,2*%
%TO.N,Net-(K3-PadA2)*%
X124174800Y-70676800D03*
%TD*%
D18*
%TO.P,P1,1,1*%
%TO.N,Net-(P1-Pad1)*%
X80359800Y-63313800D03*
%TD*%
D19*
%TO.P,D3-1,1,1*%
%TO.N,Net-(D3-1-Pad1)*%
X128619800Y-64456800D03*
%TD*%
%TO.P,D3-2,1,1*%
%TO.N,Net-(D3-2-Pad1)*%
X128619800Y-61916800D03*
%TD*%
D20*
%TO.P,P2,1,1*%
%TO.N,Net-(P2-Pad1)*%
X79724800Y-66615800D03*
%TD*%
D17*
%TO.P,R10,1,1*%
%TO.N,Net-(D2-1-Pad1)*%
X96234800Y-66181800D03*
%TO.P,R10,2,2*%
%TO.N,Net-(K2-PadA1)*%
X96234800Y-69031800D03*
%TD*%
D21*
%TO.P,R2,1,1*%
%TO.N,Net-(K2-Pad3)*%
X98954800Y-63821800D03*
%TO.P,R2,2,2*%
%TO.N,Net-(P2-Pad1)*%
X96104800Y-63821800D03*
%TD*%
D16*
%TO.P,R7,1,1*%
%TO.N,Net-(D1-1-Pad1)*%
X84169800Y-69716800D03*
%TO.P,R7,2,2*%
%TO.N,Net-(K1-PadA1)*%
X84169800Y-66866800D03*
%TD*%
D17*
%TO.P,R6,1,1*%
%TO.N,Net-(D1-1-Pad1)*%
X84804800Y-71261800D03*
%TO.P,R6,2,2*%
%TO.N,Net-(K1-PadA1)*%
X84804800Y-74111800D03*
%TD*%
%TO.P,R8,1,1*%
%TO.N,Net-(D2-2-Pad1)*%
X110839800Y-70626800D03*
%TO.P,R8,2,2*%
%TO.N,Net-(K2-PadA2)*%
X110839800Y-73476800D03*
%TD*%
D16*
%TO.P,R5,1,1*%
%TO.N,Net-(D1-2-Pad1)*%
X98139800Y-74161800D03*
%TO.P,R5,2,2*%
%TO.N,Net-(K1-PadA2)*%
X98139800Y-71311800D03*
%TD*%
D17*
%TO.P,R13,1,1*%
%TO.N,Net-(D3-2-Pad1)*%
X124174800Y-63006800D03*
%TO.P,R13,2,2*%
%TO.N,Net-(K3-PadA2)*%
X124174800Y-65856800D03*
%TD*%
D21*
%TO.P,R3,1,1*%
%TO.N,Net-(K3-Pad3)*%
X113559800Y-63186800D03*
%TO.P,R3,2,2*%
%TO.N,Net-(P3-Pad1)*%
X110709800Y-63186800D03*
%TD*%
D19*
%TO.P,D1-2,1,1*%
%TO.N,Net-(D1-2-Pad1)*%
X128619800Y-72076800D03*
%TD*%
D17*
%TO.P,R11,1,1*%
%TO.N,Net-(D2-1-Pad1)*%
X98774800Y-66181800D03*
%TO.P,R11,2,2*%
%TO.N,Net-(K2-PadA1)*%
X98774800Y-69031800D03*
%TD*%
D22*
%TO.P,D2-2,1,1*%
%TO.N,Net-(D2-2-Pad1)*%
X128619800Y-66996800D03*
%TD*%
D16*
%TO.P,R1,1,1*%
%TO.N,Net-(K1-Pad3)*%
X84804800Y-65271800D03*
%TO.P,R1,2,2*%
%TO.N,Net-(P1-Pad1)*%
X84804800Y-62421800D03*
%TD*%
D17*
%TO.P,R9,1,1*%
%TO.N,Net-(D2-2-Pad1)*%
X113379800Y-70626800D03*
%TO.P,R9,2,2*%
%TO.N,Net-(K2-PadA2)*%
X113379800Y-73476800D03*
%TD*%
%TO.P,R15,1,1*%
%TO.N,Net-(D3-1-Pad1)*%
X110839800Y-65546800D03*
%TO.P,R15,2,2*%
%TO.N,Net-(K3-PadA1)*%
X110839800Y-68396800D03*
%TD*%
D20*
%TO.P,P3,1,1*%
%TO.N,Net-(P3-Pad1)*%
X79724800Y-69917800D03*
%TD*%
D19*
%TO.P,D1-1,1,1*%
%TO.N,Net-(D1-1-Pad1)*%
X128619800Y-74616800D03*
%TD*%
D22*
%TO.P,D2-1,1,1*%
%TO.N,Net-(D2-1-Pad1)*%
X128619800Y-69536800D03*
%TD*%
D20*
%TO.P,J0,1,1*%
%TO.N,GND_Bar*%
X80359800Y-73219800D03*
%TD*%
D23*
%TO.N,Net-(D1-1-Pad1)*%
X125444800Y-74811200D03*
X84169800Y-70626800D03*
%TO.N,Net-(D1-2-Pad1)*%
X125450123Y-72707168D03*
X100044800Y-73346800D03*
%TO.N,Net-(D2-1-Pad1)*%
X97504800Y-66181800D03*
X125444800Y-69536800D03*
%TO.N,Net-(D2-2-Pad1)*%
X112109800Y-70171800D03*
X125444800Y-66996800D03*
%TO.N,Net-(D3-1-Pad1)*%
X112109800Y-65546800D03*
X125444800Y-64456800D03*
%TO.N,Net-(D3-2-Pad1)*%
X125444800Y-62551800D03*
X124174800Y-72076800D03*
%TO.N,GND_Bar*%
X77438792Y-73981792D03*
%TO.N,Net-(P2-Pad1)*%
X76676785Y-67250800D03*
X91789800Y-62368100D03*
%TO.N,Net-(P3-Pad1)*%
X97504800Y-63186800D03*
X76867307Y-69219293D03*
%TD*%
D24*
%TO.N,Net-(D1-1-Pad1)*%
X125639200Y-74616800D02*
X128619800Y-74616800D01*
D25*
X84804800Y-71261800D02*
X84169800Y-70626800D01*
D24*
X125444800Y-74811200D02*
X125639200Y-74616800D01*
D25*
X84169800Y-69716800D02*
X84169800Y-70626800D01*
%TO.N,Net-(D1-2-Pad1)*%
X99229800Y-74161800D02*
X100044800Y-73346800D01*
X95599800Y-74161800D02*
X98139800Y-74161800D01*
D24*
X125450123Y-72707168D02*
X126080491Y-72076800D01*
X126080491Y-72076800D02*
X128619800Y-72076800D01*
D25*
X98139800Y-74161800D02*
X99229800Y-74161800D01*
D24*
%TO.N,Net-(D2-1-Pad1)*%
X125444800Y-69536800D02*
X128619800Y-69536800D01*
D25*
X98774800Y-66181800D02*
X96234800Y-66181800D01*
D24*
%TO.N,Net-(D2-2-Pad1)*%
X128619800Y-66996800D02*
X125444800Y-66996800D01*
D25*
X110839800Y-70626800D02*
X113379800Y-70626800D01*
D24*
%TO.N,Net-(D3-1-Pad1)*%
X113379800Y-65546800D02*
X112109800Y-65546800D01*
X128619800Y-64456800D02*
X125444800Y-64456800D01*
D25*
X110839800Y-65546800D02*
X113379800Y-65546800D01*
D24*
%TO.N,Net-(D3-2-Pad1)*%
X125444800Y-62551800D02*
X124629800Y-62551800D01*
X128619800Y-61916800D02*
X126079800Y-61916800D01*
X124174800Y-73526800D02*
X124174800Y-72076800D01*
X126079800Y-61916800D02*
X125444800Y-62551800D01*
X124629800Y-62551800D02*
X124174800Y-63006800D01*
D25*
%TO.N,GND_Bar*%
X106140800Y-71441800D02*
X105527800Y-70828800D01*
X120027800Y-70828800D02*
X118989800Y-71866800D01*
X121239800Y-65091800D02*
X120640800Y-65091800D01*
X120027800Y-65704800D02*
X119933000Y-65799600D01*
X89989800Y-64666800D02*
X91027800Y-65704800D01*
X92239800Y-71441800D02*
X91640800Y-71441800D01*
X106739800Y-71441800D02*
X106140800Y-71441800D01*
X105527800Y-70828800D02*
X104489800Y-71866800D01*
X91027800Y-65704800D02*
X91027800Y-70828800D01*
X91027800Y-70828800D02*
X89989800Y-71866800D01*
X120640800Y-65091800D02*
X120027800Y-65704800D01*
X119933000Y-65799600D02*
X119933000Y-70734000D01*
X80359800Y-73219800D02*
X78200784Y-73219800D01*
X121239800Y-71441800D02*
X120640800Y-71441800D01*
X104489800Y-64666800D02*
X105527800Y-65704800D01*
X106140800Y-65091800D02*
X105527800Y-65704800D01*
X78200784Y-73219800D02*
X77438792Y-73981792D01*
X118989800Y-64666800D02*
X120027800Y-65704800D01*
X120640800Y-71441800D02*
X120027800Y-70828800D01*
X105527800Y-65704800D02*
X105527800Y-70828800D01*
X119933000Y-70734000D02*
X120027800Y-70828800D01*
X91640800Y-71441800D02*
X91027800Y-70828800D01*
X92239800Y-65091800D02*
X91640800Y-65091800D01*
X91640800Y-65091800D02*
X91027800Y-65704800D01*
X106739800Y-65091800D02*
X106140800Y-65091800D01*
%TO.N,Net-(K1-Pad3)*%
X87739800Y-65091800D02*
X88487800Y-65839800D01*
X84804800Y-65271800D02*
X87559800Y-65271800D01*
X88487800Y-65839800D02*
X88487800Y-70693800D01*
X88487800Y-70693800D02*
X87739800Y-71441800D01*
D24*
%TO.N,Net-(K1-PadA1)*%
X86111200Y-72805400D02*
X84804800Y-74111800D01*
D25*
X84989800Y-66866800D02*
X86389800Y-68266800D01*
X84169800Y-66866800D02*
X84989800Y-66866800D01*
D24*
X86111200Y-68545400D02*
X86111200Y-72805400D01*
D25*
%TO.N,Net-(K1-PadA2)*%
X98139800Y-71311800D02*
X95599800Y-71311800D01*
X95599800Y-71311800D02*
X93589800Y-69301800D01*
X93589800Y-69301800D02*
X93589800Y-68666800D01*
%TO.N,Net-(K2-Pad3)*%
X102239800Y-65091800D02*
X102965800Y-65817800D01*
X98954800Y-63821800D02*
X100969800Y-63821800D01*
X100969800Y-63821800D02*
X102239800Y-65091800D01*
X102965800Y-70715800D02*
X102239800Y-71441800D01*
X102965800Y-65817800D02*
X102965800Y-70715800D01*
%TO.N,Net-(K2-PadA2)*%
X110839800Y-73476800D02*
X113379800Y-73476800D01*
X108089800Y-68266800D02*
X108089800Y-70726800D01*
X108089800Y-70726800D02*
X110839800Y-73476800D01*
%TO.N,Net-(K2-PadA1)*%
X96234800Y-69031800D02*
X98774800Y-69031800D01*
X98774800Y-69031800D02*
X100124800Y-69031800D01*
X100124800Y-69031800D02*
X100889800Y-68266800D01*
%TO.N,Net-(K3-PadA2)*%
X122589800Y-69091800D02*
X124174800Y-70676800D01*
X122589800Y-68266800D02*
X122589800Y-69091800D01*
X122589800Y-67441800D02*
X124174800Y-65856800D01*
X122589800Y-68266800D02*
X122589800Y-67441800D01*
%TO.N,Net-(K3-PadA1)*%
X110839800Y-68396800D02*
X113379800Y-68396800D01*
X113379800Y-68396800D02*
X115259800Y-68396800D01*
%TO.N,Net-(K3-Pad3)*%
X117316800Y-65668800D02*
X117316800Y-70864800D01*
X113559800Y-63186800D02*
X114834800Y-63186800D01*
X117316800Y-70864800D02*
X116739800Y-71441800D01*
X116739800Y-65091800D02*
X117316800Y-65668800D01*
X114834800Y-63186800D02*
X116739800Y-65091800D01*
%TO.N,Net-(P1-Pad1)*%
X80359800Y-63313800D02*
X81251800Y-62421800D01*
X81251800Y-62421800D02*
X84804800Y-62421800D01*
%TO.N,Net-(P2-Pad1)*%
X94651100Y-62368100D02*
X91789800Y-62368100D01*
X79724800Y-66615800D02*
X77311785Y-66615800D01*
X96104800Y-63821800D02*
X94651100Y-62368100D01*
X77311785Y-66615800D02*
X76676785Y-67250800D01*
%TO.N,Net-(P3-Pad1)*%
X109439800Y-61916800D02*
X110709800Y-63186800D01*
X79724800Y-69917800D02*
X77565814Y-69917800D01*
X77565814Y-69917800D02*
X76867307Y-69219293D01*
X98026112Y-61916800D02*
X109439800Y-61916800D01*
X97504800Y-62438112D02*
X98026112Y-61916800D01*
X97504800Y-63186800D02*
X97504800Y-62438112D01*
%TD*%
M02*
