M48
METRIC
T1C0.406
T2C1.000
%
G90
G05
T1
X76.677Y-67.251
X76.867Y-69.219
X77.439Y-73.982
X84.17Y-70.627
X91.79Y-62.368
X97.505Y-63.187
X97.505Y-66.182
X100.045Y-73.347
X112.11Y-65.547
X112.11Y-70.172
X124.175Y-72.077
X125.445Y-62.552
X125.445Y-64.457
X125.445Y-66.997
X125.445Y-69.537
X125.445Y-74.811
X125.45Y-72.707
T2
X86.39Y-68.267
X87.74Y-65.092
X87.74Y-71.442
X89.99Y-64.667
X89.99Y-71.867
X92.24Y-65.092
X92.24Y-71.442
X93.59Y-68.267
X100.89Y-68.267
X102.24Y-65.092
X102.24Y-71.442
X104.49Y-64.667
X104.49Y-71.867
X106.74Y-65.092
X106.74Y-71.442
X108.09Y-68.267
X115.39Y-68.267
X116.74Y-65.092
X116.74Y-71.442
X118.99Y-64.667
X118.99Y-71.867
X121.24Y-65.092
X121.24Y-71.442
X122.59Y-68.267
M30
