%TF.GenerationSoftware,KiCad,Pcbnew,8.0.5*%
%TF.CreationDate,2024-10-25T13:02:38+02:00*%
%TF.ProjectId,ALIKEY03a,414c494b-4559-4303-9361-2e6b69636164,00*%
%TF.SameCoordinates,Original*%
%TF.FileFunction,Legend,Top*%
%TF.FilePolarity,Positive*%
%FSLAX46Y46*%
G04 Gerber Fmt 4.6, Leading zero omitted, Abs format (unit mm)*
G04 Created by KiCad (PCBNEW 8.0.5) date 2024-10-25 13:02:38*
%MOMM*%
%LPD*%
G01*
G04 APERTURE LIST*
%ADD10C,0.150000*%
%ADD11C,0.203200*%
%ADD12C,3.200000*%
G04 APERTURE END LIST*
D10*
X132183722Y-67636619D02*
X132755150Y-67636619D01*
X132469436Y-68636619D02*
X132469436Y-67636619D01*
X133278960Y-67636619D02*
X133469436Y-67636619D01*
X133469436Y-67636619D02*
X133564674Y-67684238D01*
X133564674Y-67684238D02*
X133659912Y-67779476D01*
X133659912Y-67779476D02*
X133707531Y-67969952D01*
X133707531Y-67969952D02*
X133707531Y-68303285D01*
X133707531Y-68303285D02*
X133659912Y-68493761D01*
X133659912Y-68493761D02*
X133564674Y-68589000D01*
X133564674Y-68589000D02*
X133469436Y-68636619D01*
X133469436Y-68636619D02*
X133278960Y-68636619D01*
X133278960Y-68636619D02*
X133183722Y-68589000D01*
X133183722Y-68589000D02*
X133088484Y-68493761D01*
X133088484Y-68493761D02*
X133040865Y-68303285D01*
X133040865Y-68303285D02*
X133040865Y-67969952D01*
X133040865Y-67969952D02*
X133088484Y-67779476D01*
X133088484Y-67779476D02*
X133183722Y-67684238D01*
X133183722Y-67684238D02*
X133278960Y-67636619D01*
X134136103Y-68636619D02*
X134136103Y-67636619D01*
X134136103Y-67636619D02*
X134517055Y-67636619D01*
X134517055Y-67636619D02*
X134612293Y-67684238D01*
X134612293Y-67684238D02*
X134659912Y-67731857D01*
X134659912Y-67731857D02*
X134707531Y-67827095D01*
X134707531Y-67827095D02*
X134707531Y-67969952D01*
X134707531Y-67969952D02*
X134659912Y-68065190D01*
X134659912Y-68065190D02*
X134612293Y-68112809D01*
X134612293Y-68112809D02*
X134517055Y-68160428D01*
X134517055Y-68160428D02*
X134136103Y-68160428D01*
X84701705Y-75071619D02*
X84701705Y-74071619D01*
X85273133Y-75071619D02*
X84844562Y-74500190D01*
X85273133Y-74071619D02*
X84701705Y-74643047D01*
X86225514Y-75071619D02*
X85654086Y-75071619D01*
X85939800Y-75071619D02*
X85939800Y-74071619D01*
X85939800Y-74071619D02*
X85844562Y-74214476D01*
X85844562Y-74214476D02*
X85749324Y-74309714D01*
X85749324Y-74309714D02*
X85654086Y-74357333D01*
X99306705Y-75071619D02*
X99306705Y-74071619D01*
X99878133Y-75071619D02*
X99449562Y-74500190D01*
X99878133Y-74071619D02*
X99306705Y-74643047D01*
X100259086Y-74166857D02*
X100306705Y-74119238D01*
X100306705Y-74119238D02*
X100401943Y-74071619D01*
X100401943Y-74071619D02*
X100640038Y-74071619D01*
X100640038Y-74071619D02*
X100735276Y-74119238D01*
X100735276Y-74119238D02*
X100782895Y-74166857D01*
X100782895Y-74166857D02*
X100830514Y-74262095D01*
X100830514Y-74262095D02*
X100830514Y-74357333D01*
X100830514Y-74357333D02*
X100782895Y-74500190D01*
X100782895Y-74500190D02*
X100211467Y-75071619D01*
X100211467Y-75071619D02*
X100830514Y-75071619D01*
X113911705Y-75071619D02*
X113911705Y-74071619D01*
X114483133Y-75071619D02*
X114054562Y-74500190D01*
X114483133Y-74071619D02*
X113911705Y-74643047D01*
X114816467Y-74071619D02*
X115435514Y-74071619D01*
X115435514Y-74071619D02*
X115102181Y-74452571D01*
X115102181Y-74452571D02*
X115245038Y-74452571D01*
X115245038Y-74452571D02*
X115340276Y-74500190D01*
X115340276Y-74500190D02*
X115387895Y-74547809D01*
X115387895Y-74547809D02*
X115435514Y-74643047D01*
X115435514Y-74643047D02*
X115435514Y-74881142D01*
X115435514Y-74881142D02*
X115387895Y-74976380D01*
X115387895Y-74976380D02*
X115340276Y-75024000D01*
X115340276Y-75024000D02*
X115245038Y-75071619D01*
X115245038Y-75071619D02*
X114959324Y-75071619D01*
X114959324Y-75071619D02*
X114864086Y-75024000D01*
X114864086Y-75024000D02*
X114816467Y-74976380D01*
D11*
%TO.C,K1*%
X84909800Y-63186800D02*
X84909800Y-68266800D01*
X84909800Y-63186800D02*
X89989800Y-63186800D01*
X84909800Y-73346800D02*
X84909800Y-68266800D01*
X84909800Y-73346800D02*
X89989800Y-73346800D01*
X95069800Y-63186800D02*
X89989800Y-63186800D01*
X95069800Y-63186800D02*
X95069800Y-68266800D01*
X95069800Y-73346800D02*
X89989800Y-73346800D01*
X95069800Y-73346800D02*
X95069800Y-68266800D01*
%TO.C,REF\u002A\u002A*%
X132187800Y-64139800D02*
X135362800Y-60964800D01*
X132314800Y-65155800D02*
X136378800Y-61091800D01*
X132695800Y-65917800D02*
X133838800Y-64774800D01*
X133203800Y-66552800D02*
X134219800Y-65536800D01*
X133838800Y-67060800D02*
X134981800Y-65917800D01*
X134600800Y-67441800D02*
X138537800Y-63504800D01*
X135616800Y-67568800D02*
X138791800Y-64393800D01*
X137140800Y-61472800D02*
X135997800Y-62615800D01*
X137775800Y-61980800D02*
X136759800Y-62996800D01*
X138283800Y-62615800D02*
X137140800Y-63758800D01*
X137140800Y-64266800D02*
G75*
G02*
X133838800Y-64266800I-1651000J0D01*
G01*
X133838800Y-64266800D02*
G75*
G02*
X137140800Y-64266800I1651000J0D01*
G01*
X138791800Y-64266800D02*
G75*
G02*
X132187800Y-64266800I-3302000J0D01*
G01*
X132187800Y-64266800D02*
G75*
G02*
X138791800Y-64266800I3302000J0D01*
G01*
%TO.C,K2*%
X99409800Y-63186800D02*
X99409800Y-68266800D01*
X99409800Y-63186800D02*
X104489800Y-63186800D01*
X99409800Y-73346800D02*
X99409800Y-68266800D01*
X99409800Y-73346800D02*
X104489800Y-73346800D01*
X109569800Y-63186800D02*
X104489800Y-63186800D01*
X109569800Y-63186800D02*
X109569800Y-68266800D01*
X109569800Y-73346800D02*
X104489800Y-73346800D01*
X109569800Y-73346800D02*
X109569800Y-68266800D01*
%TO.C,REF\u002A\u002A*%
X70187800Y-64139800D02*
X73362800Y-60964800D01*
X70314800Y-65155800D02*
X74378800Y-61091800D01*
X70695800Y-65917800D02*
X71838800Y-64774800D01*
X71203800Y-66552800D02*
X72219800Y-65536800D01*
X71838800Y-67060800D02*
X72981800Y-65917800D01*
X72600800Y-67441800D02*
X76537800Y-63504800D01*
X73616800Y-67568800D02*
X76791800Y-64393800D01*
X75140800Y-61472800D02*
X73997800Y-62615800D01*
X75775800Y-61980800D02*
X74759800Y-62996800D01*
X76283800Y-62615800D02*
X75140800Y-63758800D01*
X75140800Y-64266800D02*
G75*
G02*
X71838800Y-64266800I-1651000J0D01*
G01*
X71838800Y-64266800D02*
G75*
G02*
X75140800Y-64266800I1651000J0D01*
G01*
X76791800Y-64266800D02*
G75*
G02*
X70187800Y-64266800I-3302000J0D01*
G01*
X70187800Y-64266800D02*
G75*
G02*
X76791800Y-64266800I3302000J0D01*
G01*
X70187800Y-72139800D02*
X73362800Y-68964800D01*
X70314800Y-73155800D02*
X74378800Y-69091800D01*
X70695800Y-73917800D02*
X71838800Y-72774800D01*
X71203800Y-74552800D02*
X72219800Y-73536800D01*
X71838800Y-75060800D02*
X72981800Y-73917800D01*
X72600800Y-75441800D02*
X76537800Y-71504800D01*
X73616800Y-75568800D02*
X76791800Y-72393800D01*
X75140800Y-69472800D02*
X73997800Y-70615800D01*
X75775800Y-69980800D02*
X74759800Y-70996800D01*
X76283800Y-70615800D02*
X75140800Y-71758800D01*
X75140800Y-72266800D02*
G75*
G02*
X71838800Y-72266800I-1651000J0D01*
G01*
X71838800Y-72266800D02*
G75*
G02*
X75140800Y-72266800I1651000J0D01*
G01*
X76791800Y-72266800D02*
G75*
G02*
X70187800Y-72266800I-3302000J0D01*
G01*
X70187800Y-72266800D02*
G75*
G02*
X76791800Y-72266800I3302000J0D01*
G01*
%TO.C,K3*%
X113909800Y-63186800D02*
X113909800Y-68266800D01*
X113909800Y-63186800D02*
X118989800Y-63186800D01*
X113909800Y-73346800D02*
X113909800Y-68266800D01*
X113909800Y-73346800D02*
X118989800Y-73346800D01*
X124069800Y-63186800D02*
X118989800Y-63186800D01*
X124069800Y-63186800D02*
X124069800Y-68266800D01*
X124069800Y-73346800D02*
X118989800Y-73346800D01*
X124069800Y-73346800D02*
X124069800Y-68266800D01*
%TO.C,REF\u002A\u002A*%
X132187800Y-72139800D02*
X135362800Y-68964800D01*
X132314800Y-73155800D02*
X136378800Y-69091800D01*
X132695800Y-73917800D02*
X133838800Y-72774800D01*
X133203800Y-74552800D02*
X134219800Y-73536800D01*
X133838800Y-75060800D02*
X134981800Y-73917800D01*
X134600800Y-75441800D02*
X138537800Y-71504800D01*
X135616800Y-75568800D02*
X138791800Y-72393800D01*
X137140800Y-69472800D02*
X135997800Y-70615800D01*
X137775800Y-69980800D02*
X136759800Y-70996800D01*
X138283800Y-70615800D02*
X137140800Y-71758800D01*
X137140800Y-72266800D02*
G75*
G02*
X133838800Y-72266800I-1651000J0D01*
G01*
X133838800Y-72266800D02*
G75*
G02*
X137140800Y-72266800I1651000J0D01*
G01*
X138791800Y-72266800D02*
G75*
G02*
X132187800Y-72266800I-3302000J0D01*
G01*
X132187800Y-72266800D02*
G75*
G02*
X138791800Y-72266800I3302000J0D01*
G01*
%TD*%
D12*
%TO.C,REF\u002A\u002A*%
X135489800Y-64266800D03*
%TD*%
%TO.C,REF\u002A\u002A*%
X73489800Y-64266800D03*
%TD*%
%TO.C,REF\u002A\u002A*%
X73489800Y-72266800D03*
%TD*%
%TO.C,REF\u002A\u002A*%
X135489800Y-72266800D03*
%TD*%
M02*
